<svg xmlns="http://www.w3.org/2000/svg"  viewBox="0 0 64 64" width="64px" height="64px" baseProfile="basic"><polygon fill="#2583ef" points="4,17 8,20 11,18 11,14 7,12 4,14"/><polygon fill="#36c8f6" points="16,14 16,18 59,19 60,15 59,13 20,12"/><polygon fill="#36c8f6" points="58,53 60,51 59,46 16,47 16,52"/><polygon fill="#36c8f6" points="18,29 16,32 16,36 60,35 60,31 57,29"/><polygon fill="#2583ef" points="9,28 5,29 4,32 7,36 11,34 11,31"/><polygon fill="#2583ef" points="10,46 6,46 4,49 5,52 8,53 11,52 11,49"/></svg>